# xmcd
#
# Track frame offsets:
#	150
#	14698
#	30830
#	48697
#	66926
#	86197
#	105682
#	124772
#	139327
#	154069
#	173372
#	189750
#	205778
#	222454
#	238993
#	259754
#	275666
#	290267
#	305432
#	323692
#
# Disc length: 4560 seconds
#
# Revision: 0
# Processed by: cddbd v1.4PL0 Copyright (c) Steve Scherf et al.
# Submitted via: MusicWizard 6.0.1
#
DISCID=2611ce14
DTITLE=Various Artist - The Judds - Mama He's Crazy
DYEAR=1900
DGENRE=Country
TTITLE0=Judds, The - Mama He's Crazy
TTITLE1=Steve Holy - Good Morning Beautiful
TTITLE2=George Fox - I Gave You My Word
TTITLE3=Joe Nichols - The Impossible
TTITLE4=Soggy Bottom Boys - I Am A Man Of Constant Sorrow
TTITLE5=Gary Allan - The One
TTITLE6=Judds, The - Grandpa Tell Me About The Good Old Days
TTITLE7=Brad Paisley - I'm Gonna Miss Her
TTITLE8=She Daisy - Get Over Yourself
TTITLE9=Allison Krauss - When You Say Nothing At All
TTITLE10=George Strait - Living And Living Well
TTITLE11=Amy Grant - Every Heart Beat
TTITLE12=Faith Hill - There You'll Be
TTITLE13=Tommy Shane Steiner - What If She's An Angel
TTITLE14=Sara Evans - I Keep Looking
TTITLE15=George Strait - I Cross My Heart
TTITLE16=Blake Shelton - All Over Me
TTITLE17=Trick Pony - Just What I Do
TTITLE18=Rascal Flats - I'm Moving On
TTITLE19=Tim Mcgraw - The Cowboy In Me
EXTD=
EXTT0=
EXTT1=
EXTT2=
EXTT3=
EXTT4=
EXTT5=
EXTT6=
EXTT7=
EXTT8=
EXTT9=
EXTT10=
EXTT11=
EXTT12=
EXTT13=
EXTT14=
EXTT15=
EXTT16=
EXTT17=
EXTT18=
EXTT19=
PLAYORDER=
